# xmcd
#
# Track frame offsets: 
#        150
#        21689
#        44636
#        60316
#        80046
#        103771
#        126606
#        153722
#        174141
#        187582
#        208352
#        227207
#        243368
#        254303
#        270951
#        287416
#
# Disc length: 4191 seconds
#
# Revision: 0
# Processed by: cddbd v1.5.2PL0 Copyright (c) Steve Scherf et al.
# Submitted via: ExactAudioCopy v1.0b4
#
DISCID=e5105d10
DTITLE=Sampler - Six Strings Down
DYEAR=2000
DGENRE=Jazz and Blues
TTITLE0=Toscho - Dinner At Woolfies
TTITLE1=Oregon - Green And Golden
TTITLE2=Livingston Taylor - Hallelujah I Love Her So
TTITLE3=Hans Theessink  - Six Strings Down
TTITLE4=Jane Siberry - Calling Al Angels
TTITLE5=Junior Wells - Trust Me Baby
TTITLE6=Miller Anderson - Two Ships
TTITLE7=Sara K. - What You Don´t Know
TTITLE8=Livingston Taylor - Must Be Doing Something Right
TTITLE9=Oregon - Rewind
TTITLE10=Doug MacLeod - Come To Find
TTITLE11=Alison Krauss and Union Station - Find My Way Back To My Heart
TTITLE12=Loeu Dalgleish - Special
TTITLE13=Bill Morrisey - You´ll Never Get To Heaven
TTITLE14=Hans Theessink  - Soul Of A Man
TTITLE15=Toscho - Mr.Cleanhead Blues
EXTD=
EXTT0=
EXTT1=
EXTT2=
EXTT3=
EXTT4=
EXTT5=
EXTT6=
EXTT7=
EXTT8=
EXTT9=
EXTT10=
EXTT11=
EXTT12=
EXTT13=
EXTT14=
EXTT15=
PLAYORDER=
